<mxfile host="Electron" agent="Mozilla/5.0 (Windows NT 10.0; Win64; x64) AppleWebKit/537.36 (KHTML, like Gecko) draw.io/27.0.9 Chrome/134.0.6998.205 Electron/35.4.0 Safari/537.36" version="27.0.9" pages="4">
  <diagram id="C5RBs43oDa-KdzZeNtuy" name="Login">
    <mxGraphModel dx="983" dy="586" grid="1" gridSize="10" guides="1" tooltips="1" connect="1" arrows="1" fold="1" page="1" pageScale="1" pageWidth="827" pageHeight="1169" math="0" shadow="0">
      <root>
        <mxCell id="WIyWlLk6GJQsqaUBKTNV-0" />
        <mxCell id="WIyWlLk6GJQsqaUBKTNV-1" parent="WIyWlLk6GJQsqaUBKTNV-0" />
        <mxCell id="v8BdOmDeUa46LQ-Bv7yL-13" style="edgeStyle=orthogonalEdgeStyle;rounded=0;orthogonalLoop=1;jettySize=auto;html=1;entryX=0.5;entryY=0;entryDx=0;entryDy=0;" parent="WIyWlLk6GJQsqaUBKTNV-1" source="v8BdOmDeUa46LQ-Bv7yL-2" target="v8BdOmDeUa46LQ-Bv7yL-12" edge="1">
          <mxGeometry relative="1" as="geometry" />
        </mxCell>
        <mxCell id="v8BdOmDeUa46LQ-Bv7yL-2" value="varchar username,&lt;div&gt;varchar password&lt;/div&gt;&lt;div&gt;object result&lt;/div&gt;" style="shape=hexagon;perimeter=hexagonPerimeter2;whiteSpace=wrap;html=1;fixedSize=1;" parent="WIyWlLk6GJQsqaUBKTNV-1" vertex="1">
          <mxGeometry x="341" y="210" width="144.67" height="70" as="geometry" />
        </mxCell>
        <mxCell id="v8BdOmDeUa46LQ-Bv7yL-7" style="edgeStyle=orthogonalEdgeStyle;rounded=0;orthogonalLoop=1;jettySize=auto;html=1;entryX=0.5;entryY=0;entryDx=0;entryDy=0;" parent="WIyWlLk6GJQsqaUBKTNV-1" source="v8BdOmDeUa46LQ-Bv7yL-6" target="v8BdOmDeUa46LQ-Bv7yL-2" edge="1">
          <mxGeometry relative="1" as="geometry" />
        </mxCell>
        <mxCell id="v8BdOmDeUa46LQ-Bv7yL-6" value="Start" style="strokeWidth=2;html=1;shape=mxgraph.flowchart.start_1;whiteSpace=wrap;" parent="WIyWlLk6GJQsqaUBKTNV-1" vertex="1">
          <mxGeometry x="364" y="120" width="100" height="60" as="geometry" />
        </mxCell>
        <mxCell id="v8BdOmDeUa46LQ-Bv7yL-8" value="/ login" style="text;html=1;align=center;verticalAlign=middle;whiteSpace=wrap;rounded=1;fillColor=#647687;strokeColor=#314354;fontColor=#ffffff;" parent="WIyWlLk6GJQsqaUBKTNV-1" vertex="1">
          <mxGeometry x="384" y="60" width="60" height="30" as="geometry" />
        </mxCell>
        <mxCell id="v8BdOmDeUa46LQ-Bv7yL-16" style="edgeStyle=orthogonalEdgeStyle;rounded=0;orthogonalLoop=1;jettySize=auto;html=1;exitX=0.5;exitY=1;exitDx=0;exitDy=0;entryX=0.5;entryY=0;entryDx=0;entryDy=0;" parent="WIyWlLk6GJQsqaUBKTNV-1" source="v8BdOmDeUa46LQ-Bv7yL-12" target="v8BdOmDeUa46LQ-Bv7yL-15" edge="1">
          <mxGeometry relative="1" as="geometry" />
        </mxCell>
        <mxCell id="v8BdOmDeUa46LQ-Bv7yL-12" value="INPUT&lt;div&gt;username,&lt;/div&gt;&lt;div&gt;password&lt;/div&gt;" style="shape=parallelogram;perimeter=parallelogramPerimeter;whiteSpace=wrap;html=1;fixedSize=1;" parent="WIyWlLk6GJQsqaUBKTNV-1" vertex="1">
          <mxGeometry x="338.33" y="310" width="150" height="60" as="geometry" />
        </mxCell>
        <mxCell id="v8BdOmDeUa46LQ-Bv7yL-17" style="edgeStyle=orthogonalEdgeStyle;rounded=0;orthogonalLoop=1;jettySize=auto;html=1;exitX=0;exitY=0.5;exitDx=0;exitDy=0;entryX=0.5;entryY=1;entryDx=0;entryDy=0;" parent="WIyWlLk6GJQsqaUBKTNV-1" source="v8BdOmDeUa46LQ-Bv7yL-15" target="v8BdOmDeUa46LQ-Bv7yL-18" edge="1">
          <mxGeometry relative="1" as="geometry">
            <mxPoint x="220" y="370" as="targetPoint" />
          </mxGeometry>
        </mxCell>
        <mxCell id="v8BdOmDeUa46LQ-Bv7yL-20" value="False" style="edgeLabel;html=1;align=center;verticalAlign=middle;resizable=0;points=[];" parent="v8BdOmDeUa46LQ-Bv7yL-17" vertex="1" connectable="0">
          <mxGeometry x="-0.2787" relative="1" as="geometry">
            <mxPoint as="offset" />
          </mxGeometry>
        </mxCell>
        <mxCell id="v8BdOmDeUa46LQ-Bv7yL-34" style="edgeStyle=orthogonalEdgeStyle;rounded=0;orthogonalLoop=1;jettySize=auto;html=1;exitX=0.5;exitY=1;exitDx=0;exitDy=0;entryX=0.75;entryY=0;entryDx=0;entryDy=0;" parent="WIyWlLk6GJQsqaUBKTNV-1" source="v8BdOmDeUa46LQ-Bv7yL-15" target="v8BdOmDeUa46LQ-Bv7yL-21" edge="1">
          <mxGeometry relative="1" as="geometry">
            <mxPoint x="414" y="630" as="targetPoint" />
          </mxGeometry>
        </mxCell>
        <mxCell id="v8BdOmDeUa46LQ-Bv7yL-46" value="True" style="edgeLabel;html=1;align=center;verticalAlign=middle;resizable=0;points=[];" parent="v8BdOmDeUa46LQ-Bv7yL-34" vertex="1" connectable="0">
          <mxGeometry x="-0.2479" y="1" relative="1" as="geometry">
            <mxPoint x="-2" as="offset" />
          </mxGeometry>
        </mxCell>
        <mxCell id="v8BdOmDeUa46LQ-Bv7yL-15" value="&lt;font style=&quot;font-size: 10px;&quot;&gt;if&lt;/font&gt;&lt;div&gt;&lt;font style=&quot;font-size: 10px;&quot;&gt;username ||&lt;/font&gt;&lt;span style=&quot;font-size: 10px; background-color: transparent; color: light-dark(rgb(0, 0, 0), rgb(255, 255, 255));&quot;&gt;&amp;nbsp;&lt;/span&gt;&lt;/div&gt;&lt;div&gt;&lt;font style=&quot;font-size: 10px;&quot;&gt;password&lt;/font&gt;&lt;/div&gt;&lt;div&gt;&lt;font style=&quot;font-size: 10px;&quot;&gt;==&lt;/font&gt;&lt;/div&gt;&lt;div&gt;&lt;font style=&quot;font-size: 10px;&quot;&gt;&quot; &quot;&lt;/font&gt;&lt;/div&gt;" style="rhombus;whiteSpace=wrap;html=1;" parent="WIyWlLk6GJQsqaUBKTNV-1" vertex="1">
          <mxGeometry x="344" y="390" width="140" height="140" as="geometry" />
        </mxCell>
        <mxCell id="v8BdOmDeUa46LQ-Bv7yL-18" value="DISPLAY&lt;div&gt;&quot;All fields required&quot;&lt;/div&gt;" style="shape=parallelogram;perimeter=parallelogramPerimeter;whiteSpace=wrap;html=1;fixedSize=1;" parent="WIyWlLk6GJQsqaUBKTNV-1" vertex="1">
          <mxGeometry x="149.99999999999997" y="310" width="150" height="60" as="geometry" />
        </mxCell>
        <mxCell id="v8BdOmDeUa46LQ-Bv7yL-19" style="edgeStyle=orthogonalEdgeStyle;rounded=0;orthogonalLoop=1;jettySize=auto;html=1;exitX=1;exitY=0.5;exitDx=0;exitDy=0;entryX=0;entryY=0.5;entryDx=0;entryDy=0;" parent="WIyWlLk6GJQsqaUBKTNV-1" source="v8BdOmDeUa46LQ-Bv7yL-18" target="v8BdOmDeUa46LQ-Bv7yL-12" edge="1">
          <mxGeometry relative="1" as="geometry" />
        </mxCell>
        <mxCell id="v8BdOmDeUa46LQ-Bv7yL-33" style="edgeStyle=orthogonalEdgeStyle;rounded=0;orthogonalLoop=1;jettySize=auto;html=1;exitX=1;exitY=0.5;exitDx=0;exitDy=0;entryX=0;entryY=0.5;entryDx=0;entryDy=0;" parent="WIyWlLk6GJQsqaUBKTNV-1" source="v8BdOmDeUa46LQ-Bv7yL-21" target="v8BdOmDeUa46LQ-Bv7yL-32" edge="1">
          <mxGeometry relative="1" as="geometry" />
        </mxCell>
        <mxCell id="v8BdOmDeUa46LQ-Bv7yL-21" value="result = db_result" style="shape=process;whiteSpace=wrap;html=1;backgroundOutline=1;" parent="WIyWlLk6GJQsqaUBKTNV-1" vertex="1">
          <mxGeometry x="301" y="588" width="150" height="60" as="geometry" />
        </mxCell>
        <mxCell id="v8BdOmDeUa46LQ-Bv7yL-24" value="Accounts" style="shape=cylinder3;whiteSpace=wrap;html=1;boundedLbl=1;backgroundOutline=1;size=15;" parent="WIyWlLk6GJQsqaUBKTNV-1" vertex="1">
          <mxGeometry x="200" y="578" width="70" height="80" as="geometry" />
        </mxCell>
        <mxCell id="v8BdOmDeUa46LQ-Bv7yL-25" style="edgeStyle=orthogonalEdgeStyle;rounded=0;orthogonalLoop=1;jettySize=auto;html=1;entryX=0.5;entryY=0;entryDx=0;entryDy=0;entryPerimeter=0;exitX=0.5;exitY=0;exitDx=0;exitDy=0;" parent="WIyWlLk6GJQsqaUBKTNV-1" source="v8BdOmDeUa46LQ-Bv7yL-21" target="v8BdOmDeUa46LQ-Bv7yL-24" edge="1">
          <mxGeometry relative="1" as="geometry">
            <mxPoint x="238.32999999999998" y="603" as="sourcePoint" />
            <mxPoint x="238.32999999999998" y="543" as="targetPoint" />
            <Array as="points">
              <mxPoint x="370" y="553" />
              <mxPoint x="235" y="553" />
            </Array>
          </mxGeometry>
        </mxCell>
        <mxCell id="v8BdOmDeUa46LQ-Bv7yL-27" value="Get User" style="edgeLabel;html=1;align=center;verticalAlign=middle;resizable=0;points=[];" parent="v8BdOmDeUa46LQ-Bv7yL-25" vertex="1" connectable="0">
          <mxGeometry x="-0.0953" y="1" relative="1" as="geometry">
            <mxPoint x="-19" y="-16" as="offset" />
          </mxGeometry>
        </mxCell>
        <mxCell id="v8BdOmDeUa46LQ-Bv7yL-26" style="edgeStyle=orthogonalEdgeStyle;rounded=0;orthogonalLoop=1;jettySize=auto;html=1;exitX=0.467;exitY=0.988;exitDx=0;exitDy=0;exitPerimeter=0;entryX=0.5;entryY=1;entryDx=0;entryDy=0;" parent="WIyWlLk6GJQsqaUBKTNV-1" source="v8BdOmDeUa46LQ-Bv7yL-24" target="v8BdOmDeUa46LQ-Bv7yL-21" edge="1">
          <mxGeometry relative="1" as="geometry">
            <Array as="points">
              <mxPoint x="233" y="673" />
              <mxPoint x="376" y="673" />
            </Array>
          </mxGeometry>
        </mxCell>
        <mxCell id="v8BdOmDeUa46LQ-Bv7yL-28" value="Result" style="edgeLabel;html=1;align=center;verticalAlign=middle;resizable=0;points=[];" parent="v8BdOmDeUa46LQ-Bv7yL-26" vertex="1" connectable="0">
          <mxGeometry x="-0.0296" y="1" relative="1" as="geometry">
            <mxPoint x="-4" y="17" as="offset" />
          </mxGeometry>
        </mxCell>
        <mxCell id="v8BdOmDeUa46LQ-Bv7yL-55" style="edgeStyle=orthogonalEdgeStyle;rounded=0;orthogonalLoop=1;jettySize=auto;html=1;exitX=1;exitY=0.5;exitDx=0;exitDy=0;entryX=0.5;entryY=1;entryDx=0;entryDy=0;" parent="WIyWlLk6GJQsqaUBKTNV-1" source="v8BdOmDeUa46LQ-Bv7yL-29" target="v8BdOmDeUa46LQ-Bv7yL-54" edge="1">
          <mxGeometry relative="1" as="geometry" />
        </mxCell>
        <mxCell id="v8BdOmDeUa46LQ-Bv7yL-57" value="False" style="edgeLabel;html=1;align=center;verticalAlign=middle;resizable=0;points=[];" parent="v8BdOmDeUa46LQ-Bv7yL-55" vertex="1" connectable="0">
          <mxGeometry x="0.1089" y="2" relative="1" as="geometry">
            <mxPoint x="2" as="offset" />
          </mxGeometry>
        </mxCell>
        <mxCell id="v8BdOmDeUa46LQ-Bv7yL-61" style="edgeStyle=orthogonalEdgeStyle;rounded=0;orthogonalLoop=1;jettySize=auto;html=1;exitX=0;exitY=0.5;exitDx=0;exitDy=0;entryX=1;entryY=0.5;entryDx=0;entryDy=0;" parent="WIyWlLk6GJQsqaUBKTNV-1" source="v8BdOmDeUa46LQ-Bv7yL-29" target="v8BdOmDeUa46LQ-Bv7yL-60" edge="1">
          <mxGeometry relative="1" as="geometry" />
        </mxCell>
        <mxCell id="v8BdOmDeUa46LQ-Bv7yL-67" value="True" style="edgeLabel;html=1;align=center;verticalAlign=middle;resizable=0;points=[];" parent="v8BdOmDeUa46LQ-Bv7yL-61" vertex="1" connectable="0">
          <mxGeometry x="-0.1594" y="2" relative="1" as="geometry">
            <mxPoint y="-2" as="offset" />
          </mxGeometry>
        </mxCell>
        <mxCell id="v8BdOmDeUa46LQ-Bv7yL-29" value="&lt;div style=&quot;line-height: 90%;&quot;&gt;&lt;font style=&quot;font-size: 8px; line-height: 90%;&quot;&gt;if&lt;/font&gt;&lt;div&gt;&lt;font style=&quot;font-size: 8px; line-height: 90%;&quot;&gt;username ==&amp;nbsp; result.username&lt;/font&gt;&lt;/div&gt;&lt;div&gt;&lt;font style=&quot;font-size: 8px; line-height: 90%;&quot;&gt;&amp;amp;&amp;amp;&lt;/font&gt;&lt;/div&gt;&lt;div&gt;&lt;font style=&quot;font-size: 8px; line-height: 90%;&quot;&gt;password == result.password&lt;/font&gt;&lt;/div&gt;&lt;/div&gt;" style="rhombus;whiteSpace=wrap;html=1;" parent="WIyWlLk6GJQsqaUBKTNV-1" vertex="1">
          <mxGeometry x="510" y="750" width="150" height="160" as="geometry" />
        </mxCell>
        <mxCell id="v8BdOmDeUa46LQ-Bv7yL-48" style="edgeStyle=orthogonalEdgeStyle;rounded=0;orthogonalLoop=1;jettySize=auto;html=1;exitX=0.5;exitY=0;exitDx=0;exitDy=0;entryX=0.5;entryY=1;entryDx=0;entryDy=0;" parent="WIyWlLk6GJQsqaUBKTNV-1" source="v8BdOmDeUa46LQ-Bv7yL-32" target="v8BdOmDeUa46LQ-Bv7yL-47" edge="1">
          <mxGeometry relative="1" as="geometry" />
        </mxCell>
        <mxCell id="v8BdOmDeUa46LQ-Bv7yL-50" value="True" style="edgeLabel;html=1;align=center;verticalAlign=middle;resizable=0;points=[];" parent="v8BdOmDeUa46LQ-Bv7yL-48" vertex="1" connectable="0">
          <mxGeometry x="-0.2299" y="2" relative="1" as="geometry">
            <mxPoint x="2" y="-10" as="offset" />
          </mxGeometry>
        </mxCell>
        <mxCell id="v8BdOmDeUa46LQ-Bv7yL-51" style="edgeStyle=orthogonalEdgeStyle;rounded=0;orthogonalLoop=1;jettySize=auto;html=1;exitX=0.5;exitY=1;exitDx=0;exitDy=0;entryX=0.5;entryY=0;entryDx=0;entryDy=0;" parent="WIyWlLk6GJQsqaUBKTNV-1" source="v8BdOmDeUa46LQ-Bv7yL-32" target="v8BdOmDeUa46LQ-Bv7yL-29" edge="1">
          <mxGeometry relative="1" as="geometry" />
        </mxCell>
        <mxCell id="v8BdOmDeUa46LQ-Bv7yL-52" value="False" style="edgeLabel;html=1;align=center;verticalAlign=middle;resizable=0;points=[];" parent="v8BdOmDeUa46LQ-Bv7yL-51" vertex="1" connectable="0">
          <mxGeometry x="-0.2255" y="1" relative="1" as="geometry">
            <mxPoint x="-1" as="offset" />
          </mxGeometry>
        </mxCell>
        <mxCell id="v8BdOmDeUa46LQ-Bv7yL-32" value="&lt;div style=&quot;line-height: 90%;&quot;&gt;&lt;font&gt;if&amp;nbsp;&lt;/font&gt;&lt;/div&gt;&lt;div style=&quot;line-height: 90%;&quot;&gt;&lt;font&gt;resultl.length == 0&lt;/font&gt;&lt;/div&gt;" style="rhombus;whiteSpace=wrap;html=1;" parent="WIyWlLk6GJQsqaUBKTNV-1" vertex="1">
          <mxGeometry x="510" y="538" width="150" height="160" as="geometry" />
        </mxCell>
        <mxCell id="v8BdOmDeUa46LQ-Bv7yL-49" style="edgeStyle=orthogonalEdgeStyle;rounded=0;orthogonalLoop=1;jettySize=auto;html=1;entryX=1;entryY=0.5;entryDx=0;entryDy=0;" parent="WIyWlLk6GJQsqaUBKTNV-1" source="v8BdOmDeUa46LQ-Bv7yL-47" target="v8BdOmDeUa46LQ-Bv7yL-12" edge="1">
          <mxGeometry relative="1" as="geometry">
            <Array as="points">
              <mxPoint x="585" y="340" />
            </Array>
          </mxGeometry>
        </mxCell>
        <mxCell id="v8BdOmDeUa46LQ-Bv7yL-47" value="DISPLAY&lt;div&gt;&quot;User does not exist&quot;&lt;/div&gt;" style="shape=parallelogram;perimeter=parallelogramPerimeter;whiteSpace=wrap;html=1;fixedSize=1;" parent="WIyWlLk6GJQsqaUBKTNV-1" vertex="1">
          <mxGeometry x="509.99999999999994" y="380" width="150" height="60" as="geometry" />
        </mxCell>
        <mxCell id="v8BdOmDeUa46LQ-Bv7yL-56" style="edgeStyle=orthogonalEdgeStyle;rounded=0;orthogonalLoop=1;jettySize=auto;html=1;exitX=0.5;exitY=0;exitDx=0;exitDy=0;" parent="WIyWlLk6GJQsqaUBKTNV-1" source="v8BdOmDeUa46LQ-Bv7yL-54" edge="1">
          <mxGeometry relative="1" as="geometry">
            <mxPoint x="580" y="340" as="targetPoint" />
            <Array as="points">
              <mxPoint x="725" y="340" />
            </Array>
          </mxGeometry>
        </mxCell>
        <mxCell id="v8BdOmDeUa46LQ-Bv7yL-54" value="DISPLAY&lt;div&gt;&quot; Incorrect&amp;nbsp;&lt;span style=&quot;background-color: transparent; color: light-dark(rgb(0, 0, 0), rgb(255, 255, 255));&quot;&gt;username&lt;/span&gt;&lt;span style=&quot;background-color: transparent; color: light-dark(rgb(0, 0, 0), rgb(255, 255, 255));&quot;&gt;&amp;nbsp;&lt;/span&gt;&lt;/div&gt;&lt;div&gt;&lt;span style=&quot;background-color: transparent; color: light-dark(rgb(0, 0, 0), rgb(255, 255, 255));&quot;&gt;or&amp;nbsp;&lt;/span&gt;&lt;span style=&quot;background-color: transparent; color: light-dark(rgb(0, 0, 0), rgb(255, 255, 255));&quot;&gt;password&amp;nbsp;&lt;/span&gt;&lt;span style=&quot;background-color: transparent; color: light-dark(rgb(0, 0, 0), rgb(255, 255, 255));&quot;&gt;&quot;&lt;/span&gt;&lt;/div&gt;" style="shape=parallelogram;perimeter=parallelogramPerimeter;whiteSpace=wrap;html=1;fixedSize=1;" parent="WIyWlLk6GJQsqaUBKTNV-1" vertex="1">
          <mxGeometry x="650" y="470" width="150" height="60" as="geometry" />
        </mxCell>
        <mxCell id="gtaepHaEPt1RL58RhSL6-3" style="edgeStyle=orthogonalEdgeStyle;rounded=0;orthogonalLoop=1;jettySize=auto;html=1;exitX=0.5;exitY=1;exitDx=0;exitDy=0;entryX=0.5;entryY=0;entryDx=0;entryDy=0;" parent="WIyWlLk6GJQsqaUBKTNV-1" source="v8BdOmDeUa46LQ-Bv7yL-60" target="gtaepHaEPt1RL58RhSL6-2" edge="1">
          <mxGeometry relative="1" as="geometry" />
        </mxCell>
        <mxCell id="v8BdOmDeUa46LQ-Bv7yL-60" value="DISPLAY&lt;div&gt;&quot; Login Successful&lt;span style=&quot;background-color: transparent; color: light-dark(rgb(0, 0, 0), rgb(255, 255, 255));&quot;&gt;&amp;nbsp;&lt;/span&gt;&lt;span style=&quot;background-color: transparent; color: light-dark(rgb(0, 0, 0), rgb(255, 255, 255));&quot;&gt;&quot;&lt;/span&gt;&lt;/div&gt;" style="shape=parallelogram;perimeter=parallelogramPerimeter;whiteSpace=wrap;html=1;fixedSize=1;" parent="WIyWlLk6GJQsqaUBKTNV-1" vertex="1">
          <mxGeometry x="280" y="800" width="150" height="60" as="geometry" />
        </mxCell>
        <mxCell id="v8BdOmDeUa46LQ-Bv7yL-64" value="" style="group" parent="WIyWlLk6GJQsqaUBKTNV-1" vertex="1" connectable="0">
          <mxGeometry x="500" y="940" width="80" height="80" as="geometry" />
        </mxCell>
        <mxCell id="v8BdOmDeUa46LQ-Bv7yL-58" value="" style="verticalLabelPosition=bottom;verticalAlign=top;html=1;shape=offPageConnector;rounded=0;size=0.25;" parent="v8BdOmDeUa46LQ-Bv7yL-64" vertex="1">
          <mxGeometry width="80" height="80" as="geometry" />
        </mxCell>
        <mxCell id="v8BdOmDeUa46LQ-Bv7yL-63" value="Landing Page" style="text;html=1;align=center;verticalAlign=middle;whiteSpace=wrap;rounded=0;" parent="v8BdOmDeUa46LQ-Bv7yL-64" vertex="1">
          <mxGeometry x="10" y="25" width="60" height="30" as="geometry" />
        </mxCell>
        <mxCell id="J65-EzWz9kIfB5XFTpwJ-1" value="" style="group" parent="WIyWlLk6GJQsqaUBKTNV-1" vertex="1" connectable="0">
          <mxGeometry x="580" y="205" width="80" height="80" as="geometry" />
        </mxCell>
        <mxCell id="J65-EzWz9kIfB5XFTpwJ-2" value="" style="verticalLabelPosition=bottom;verticalAlign=top;html=1;shape=offPageConnector;rounded=0;size=0.25;" parent="J65-EzWz9kIfB5XFTpwJ-1" vertex="1">
          <mxGeometry width="80" height="80" as="geometry" />
        </mxCell>
        <mxCell id="J65-EzWz9kIfB5XFTpwJ-3" value="Login Page" style="text;html=1;align=center;verticalAlign=middle;whiteSpace=wrap;rounded=0;" parent="J65-EzWz9kIfB5XFTpwJ-1" vertex="1">
          <mxGeometry x="10" y="25" width="60" height="30" as="geometry" />
        </mxCell>
        <mxCell id="J65-EzWz9kIfB5XFTpwJ-5" style="edgeStyle=orthogonalEdgeStyle;rounded=0;orthogonalLoop=1;jettySize=auto;html=1;entryX=1;entryY=0.5;entryDx=0;entryDy=0;" parent="WIyWlLk6GJQsqaUBKTNV-1" source="J65-EzWz9kIfB5XFTpwJ-2" target="v8BdOmDeUa46LQ-Bv7yL-2" edge="1">
          <mxGeometry relative="1" as="geometry" />
        </mxCell>
        <mxCell id="gtaepHaEPt1RL58RhSL6-8" style="edgeStyle=orthogonalEdgeStyle;rounded=0;orthogonalLoop=1;jettySize=auto;html=1;exitX=1;exitY=0.5;exitDx=0;exitDy=0;entryX=0;entryY=0.5;entryDx=0;entryDy=0;" parent="WIyWlLk6GJQsqaUBKTNV-1" source="gtaepHaEPt1RL58RhSL6-2" target="v8BdOmDeUa46LQ-Bv7yL-58" edge="1">
          <mxGeometry relative="1" as="geometry" />
        </mxCell>
        <mxCell id="gtaepHaEPt1RL58RhSL6-10" value="True" style="edgeLabel;html=1;align=center;verticalAlign=middle;resizable=0;points=[];" parent="gtaepHaEPt1RL58RhSL6-8" vertex="1" connectable="0">
          <mxGeometry x="-0.0512" y="1" relative="1" as="geometry">
            <mxPoint as="offset" />
          </mxGeometry>
        </mxCell>
        <mxCell id="gtaepHaEPt1RL58RhSL6-9" style="edgeStyle=orthogonalEdgeStyle;rounded=0;orthogonalLoop=1;jettySize=auto;html=1;exitX=0;exitY=0.5;exitDx=0;exitDy=0;entryX=1;entryY=0.5;entryDx=0;entryDy=0;" parent="WIyWlLk6GJQsqaUBKTNV-1" source="gtaepHaEPt1RL58RhSL6-2" target="gtaepHaEPt1RL58RhSL6-6" edge="1">
          <mxGeometry relative="1" as="geometry" />
        </mxCell>
        <mxCell id="gtaepHaEPt1RL58RhSL6-11" value="False" style="edgeLabel;html=1;align=center;verticalAlign=middle;resizable=0;points=[];" parent="gtaepHaEPt1RL58RhSL6-9" vertex="1" connectable="0">
          <mxGeometry x="-0.1655" relative="1" as="geometry">
            <mxPoint as="offset" />
          </mxGeometry>
        </mxCell>
        <mxCell id="gtaepHaEPt1RL58RhSL6-2" value="&lt;div style=&quot;line-height: 110%;&quot;&gt;&lt;div&gt;if&lt;/div&gt;&lt;div&gt;result.access&amp;nbsp;&lt;/div&gt;&lt;div&gt;==&amp;nbsp;&lt;/div&gt;&lt;div&gt;&quot;User&quot;&lt;/div&gt;&lt;/div&gt;" style="rhombus;whiteSpace=wrap;html=1;" parent="WIyWlLk6GJQsqaUBKTNV-1" vertex="1">
          <mxGeometry x="280" y="900" width="150" height="160" as="geometry" />
        </mxCell>
        <mxCell id="gtaepHaEPt1RL58RhSL6-5" value="" style="group" parent="WIyWlLk6GJQsqaUBKTNV-1" vertex="1" connectable="0">
          <mxGeometry x="130" y="940" width="80" height="80" as="geometry" />
        </mxCell>
        <mxCell id="gtaepHaEPt1RL58RhSL6-6" value="" style="verticalLabelPosition=bottom;verticalAlign=top;html=1;shape=offPageConnector;rounded=0;size=0.25;" parent="gtaepHaEPt1RL58RhSL6-5" vertex="1">
          <mxGeometry width="80" height="80" as="geometry" />
        </mxCell>
        <mxCell id="gtaepHaEPt1RL58RhSL6-7" value="Admin&lt;div&gt;Dashboard&lt;/div&gt;" style="text;html=1;align=center;verticalAlign=middle;whiteSpace=wrap;rounded=0;" parent="gtaepHaEPt1RL58RhSL6-5" vertex="1">
          <mxGeometry x="10" y="25" width="60" height="30" as="geometry" />
        </mxCell>
      </root>
    </mxGraphModel>
  </diagram>
  <diagram id="jkO5lCxJEQFvYnSkU2qC" name="Landing Page">
    <mxGraphModel dx="1426" dy="849" grid="1" gridSize="10" guides="1" tooltips="1" connect="1" arrows="1" fold="1" page="1" pageScale="1" pageWidth="827" pageHeight="1169" math="0" shadow="0">
      <root>
        <mxCell id="0" />
        <mxCell id="1" parent="0" />
        <mxCell id="SnzOVnjzkSFl3RGRQq6p-1" value="" style="group" parent="1" vertex="1" connectable="0">
          <mxGeometry x="374" y="100" width="80" height="80" as="geometry" />
        </mxCell>
        <mxCell id="SnzOVnjzkSFl3RGRQq6p-2" value="" style="verticalLabelPosition=bottom;verticalAlign=top;html=1;shape=offPageConnector;rounded=0;size=0.25;" parent="SnzOVnjzkSFl3RGRQq6p-1" vertex="1">
          <mxGeometry width="80" height="80" as="geometry" />
        </mxCell>
        <mxCell id="SnzOVnjzkSFl3RGRQq6p-3" value="Landing Page" style="text;html=1;align=center;verticalAlign=middle;whiteSpace=wrap;rounded=0;" parent="SnzOVnjzkSFl3RGRQq6p-1" vertex="1">
          <mxGeometry x="10" y="25" width="60" height="30" as="geometry" />
        </mxCell>
        <mxCell id="8J5ysLr7zIv00hgwSydl-1" value="/ Landing Page" style="text;html=1;align=center;verticalAlign=middle;whiteSpace=wrap;rounded=1;fillColor=#647687;strokeColor=#314354;fontColor=#ffffff;" parent="1" vertex="1">
          <mxGeometry x="371" y="50" width="86" height="30" as="geometry" />
        </mxCell>
        <mxCell id="Bo__cfDvK7tAWRXyitX9-13" style="edgeStyle=orthogonalEdgeStyle;rounded=0;orthogonalLoop=1;jettySize=auto;html=1;exitX=0.5;exitY=1;exitDx=0;exitDy=0;exitPerimeter=0;entryX=0.5;entryY=0;entryDx=0;entryDy=0;" parent="1" target="Bo__cfDvK7tAWRXyitX9-28" edge="1">
          <mxGeometry relative="1" as="geometry">
            <mxPoint x="414" y="628" as="targetPoint" />
            <mxPoint x="414.33000000000015" y="418" as="sourcePoint" />
          </mxGeometry>
        </mxCell>
        <mxCell id="Bo__cfDvK7tAWRXyitX9-25" value="Logout" style="edgeLabel;html=1;align=center;verticalAlign=middle;resizable=0;points=[];" parent="Bo__cfDvK7tAWRXyitX9-13" vertex="1" connectable="0">
          <mxGeometry x="0.3404" y="2" relative="1" as="geometry">
            <mxPoint x="-2" y="-83" as="offset" />
          </mxGeometry>
        </mxCell>
        <mxCell id="Bo__cfDvK7tAWRXyitX9-14" style="edgeStyle=orthogonalEdgeStyle;rounded=0;orthogonalLoop=1;jettySize=auto;html=1;entryX=0.5;entryY=0;entryDx=0;entryDy=0;exitX=0.145;exitY=0.855;exitDx=0;exitDy=0;exitPerimeter=0;" parent="1" source="rfdQTNQrjoHskQr0L6da-1" target="Bo__cfDvK7tAWRXyitX9-5" edge="1">
          <mxGeometry relative="1" as="geometry">
            <mxPoint x="414.33333333333326" y="418" as="sourcePoint" />
            <Array as="points">
              <mxPoint x="393" y="390" />
              <mxPoint x="330" y="390" />
            </Array>
          </mxGeometry>
        </mxCell>
        <mxCell id="Bo__cfDvK7tAWRXyitX9-20" value="Profile" style="edgeLabel;html=1;align=center;verticalAlign=middle;resizable=0;points=[];" parent="Bo__cfDvK7tAWRXyitX9-14" vertex="1" connectable="0">
          <mxGeometry x="-0.0032" relative="1" as="geometry">
            <mxPoint y="23" as="offset" />
          </mxGeometry>
        </mxCell>
        <mxCell id="Bo__cfDvK7tAWRXyitX9-16" style="edgeStyle=orthogonalEdgeStyle;rounded=0;orthogonalLoop=1;jettySize=auto;html=1;exitX=0.855;exitY=0.855;exitDx=0;exitDy=0;exitPerimeter=0;entryX=0.5;entryY=0;entryDx=0;entryDy=0;" parent="1" target="Bo__cfDvK7tAWRXyitX9-11" edge="1">
          <mxGeometry relative="1" as="geometry">
            <mxPoint x="435.63" y="391.3" as="sourcePoint" />
            <mxPoint x="490" y="450" as="targetPoint" />
            <Array as="points">
              <mxPoint x="500" y="391" />
            </Array>
          </mxGeometry>
        </mxCell>
        <mxCell id="Bo__cfDvK7tAWRXyitX9-22" value="Seminars" style="edgeLabel;html=1;align=center;verticalAlign=middle;resizable=0;points=[];" parent="Bo__cfDvK7tAWRXyitX9-16" vertex="1" connectable="0">
          <mxGeometry x="0.0115" y="3" relative="1" as="geometry">
            <mxPoint x="-3" y="22" as="offset" />
          </mxGeometry>
        </mxCell>
        <mxCell id="Bo__cfDvK7tAWRXyitX9-17" style="edgeStyle=orthogonalEdgeStyle;rounded=0;orthogonalLoop=1;jettySize=auto;html=1;entryX=0.5;entryY=0;entryDx=0;entryDy=0;" parent="1" target="Bo__cfDvK7tAWRXyitX9-8" edge="1">
          <mxGeometry relative="1" as="geometry">
            <Array as="points">
              <mxPoint x="414" y="370" />
              <mxPoint x="610" y="370" />
            </Array>
            <mxPoint x="414.33333333333326" y="418" as="sourcePoint" />
          </mxGeometry>
        </mxCell>
        <mxCell id="Bo__cfDvK7tAWRXyitX9-19" value="Distributions" style="edgeLabel;html=1;align=center;verticalAlign=middle;resizable=0;points=[];" parent="Bo__cfDvK7tAWRXyitX9-17" vertex="1" connectable="0">
          <mxGeometry x="0.3429" y="1" relative="1" as="geometry">
            <mxPoint x="-45" y="1" as="offset" />
          </mxGeometry>
        </mxCell>
        <mxCell id="ejSqPQcGGgyNiifL3SCK-1" value="Services / Information" style="strokeWidth=2;html=1;shape=mxgraph.flowchart.display;whiteSpace=wrap;" parent="1" vertex="1">
          <mxGeometry x="356" y="240" width="116.66" height="70" as="geometry" />
        </mxCell>
        <mxCell id="ejSqPQcGGgyNiifL3SCK-2" style="edgeStyle=orthogonalEdgeStyle;rounded=0;orthogonalLoop=1;jettySize=auto;html=1;exitX=0.5;exitY=1;exitDx=0;exitDy=0;entryX=0.5;entryY=0;entryDx=0;entryDy=0;entryPerimeter=0;" parent="1" source="SnzOVnjzkSFl3RGRQq6p-2" target="ejSqPQcGGgyNiifL3SCK-1" edge="1">
          <mxGeometry relative="1" as="geometry" />
        </mxCell>
        <mxCell id="ejSqPQcGGgyNiifL3SCK-3" value="Display UI" style="edgeLabel;html=1;align=center;verticalAlign=middle;resizable=0;points=[];" parent="ejSqPQcGGgyNiifL3SCK-2" vertex="1" connectable="0">
          <mxGeometry x="-0.1384" y="2" relative="1" as="geometry">
            <mxPoint as="offset" />
          </mxGeometry>
        </mxCell>
        <mxCell id="Bo__cfDvK7tAWRXyitX9-1" value="" style="group" parent="1" vertex="1" connectable="0">
          <mxGeometry x="180" y="468" width="80" height="80" as="geometry" />
        </mxCell>
        <mxCell id="Bo__cfDvK7tAWRXyitX9-2" value="" style="verticalLabelPosition=bottom;verticalAlign=top;html=1;shape=offPageConnector;rounded=0;size=0.25;" parent="Bo__cfDvK7tAWRXyitX9-1" vertex="1">
          <mxGeometry width="80" height="80" as="geometry" />
        </mxCell>
        <mxCell id="Bo__cfDvK7tAWRXyitX9-3" value="EIC&amp;nbsp;&lt;div&gt;page&lt;/div&gt;" style="text;html=1;align=center;verticalAlign=middle;whiteSpace=wrap;rounded=0;" parent="Bo__cfDvK7tAWRXyitX9-1" vertex="1">
          <mxGeometry x="10" y="25" width="60" height="30" as="geometry" />
        </mxCell>
        <mxCell id="Bo__cfDvK7tAWRXyitX9-4" value="" style="group" parent="1" vertex="1" connectable="0">
          <mxGeometry x="290" y="468" width="80" height="80" as="geometry" />
        </mxCell>
        <mxCell id="Bo__cfDvK7tAWRXyitX9-5" value="" style="verticalLabelPosition=bottom;verticalAlign=top;html=1;shape=offPageConnector;rounded=0;size=0.25;" parent="Bo__cfDvK7tAWRXyitX9-4" vertex="1">
          <mxGeometry width="80" height="80" as="geometry" />
        </mxCell>
        <mxCell id="Bo__cfDvK7tAWRXyitX9-6" value="Profile Settings" style="text;html=1;align=center;verticalAlign=middle;whiteSpace=wrap;rounded=0;" parent="Bo__cfDvK7tAWRXyitX9-4" vertex="1">
          <mxGeometry x="10" y="25" width="60" height="30" as="geometry" />
        </mxCell>
        <mxCell id="Bo__cfDvK7tAWRXyitX9-7" value="" style="group" parent="1" vertex="1" connectable="0">
          <mxGeometry x="570" y="468" width="80" height="80" as="geometry" />
        </mxCell>
        <mxCell id="Bo__cfDvK7tAWRXyitX9-8" value="" style="verticalLabelPosition=bottom;verticalAlign=top;html=1;shape=offPageConnector;rounded=0;size=0.25;" parent="Bo__cfDvK7tAWRXyitX9-7" vertex="1">
          <mxGeometry width="80" height="80" as="geometry" />
        </mxCell>
        <mxCell id="Bo__cfDvK7tAWRXyitX9-9" value="Distribution&lt;div&gt;Page&lt;/div&gt;" style="text;html=1;align=center;verticalAlign=middle;whiteSpace=wrap;rounded=0;" parent="Bo__cfDvK7tAWRXyitX9-7" vertex="1">
          <mxGeometry x="10" y="25" width="60" height="30" as="geometry" />
        </mxCell>
        <mxCell id="Bo__cfDvK7tAWRXyitX9-10" value="" style="group" parent="1" vertex="1" connectable="0">
          <mxGeometry x="460" y="468" width="80" height="80" as="geometry" />
        </mxCell>
        <mxCell id="Bo__cfDvK7tAWRXyitX9-11" value="" style="verticalLabelPosition=bottom;verticalAlign=top;html=1;shape=offPageConnector;rounded=0;size=0.25;" parent="Bo__cfDvK7tAWRXyitX9-10" vertex="1">
          <mxGeometry width="80" height="80" as="geometry" />
        </mxCell>
        <mxCell id="Bo__cfDvK7tAWRXyitX9-12" value="Seminar&lt;div&gt;Page&lt;/div&gt;" style="text;html=1;align=center;verticalAlign=middle;whiteSpace=wrap;rounded=0;" parent="Bo__cfDvK7tAWRXyitX9-10" vertex="1">
          <mxGeometry x="10" y="25" width="60" height="30" as="geometry" />
        </mxCell>
        <mxCell id="Bo__cfDvK7tAWRXyitX9-15" style="edgeStyle=orthogonalEdgeStyle;rounded=0;orthogonalLoop=1;jettySize=auto;html=1;entryX=0.498;entryY=-0.041;entryDx=0;entryDy=0;entryPerimeter=0;exitX=0;exitY=0.5;exitDx=0;exitDy=0;exitPerimeter=0;" parent="1" source="rfdQTNQrjoHskQr0L6da-1" target="Bo__cfDvK7tAWRXyitX9-2" edge="1">
          <mxGeometry relative="1" as="geometry">
            <Array as="points">
              <mxPoint x="220" y="370" />
            </Array>
            <mxPoint x="414.33333333333326" y="418" as="sourcePoint" />
          </mxGeometry>
        </mxCell>
        <mxCell id="Bo__cfDvK7tAWRXyitX9-18" value="EIC Items" style="edgeLabel;html=1;align=center;verticalAlign=middle;resizable=0;points=[];" parent="Bo__cfDvK7tAWRXyitX9-15" vertex="1" connectable="0">
          <mxGeometry x="0.3946" y="-1" relative="1" as="geometry">
            <mxPoint x="51" y="-16" as="offset" />
          </mxGeometry>
        </mxCell>
        <mxCell id="Bo__cfDvK7tAWRXyitX9-27" value="" style="group" parent="1" vertex="1" connectable="0">
          <mxGeometry x="374" y="590" width="80" height="80" as="geometry" />
        </mxCell>
        <mxCell id="Bo__cfDvK7tAWRXyitX9-28" value="" style="verticalLabelPosition=bottom;verticalAlign=top;html=1;shape=offPageConnector;rounded=0;size=0.25;" parent="Bo__cfDvK7tAWRXyitX9-27" vertex="1">
          <mxGeometry width="80" height="80" as="geometry" />
        </mxCell>
        <mxCell id="Bo__cfDvK7tAWRXyitX9-29" value="Login Page" style="text;html=1;align=center;verticalAlign=middle;whiteSpace=wrap;rounded=0;" parent="Bo__cfDvK7tAWRXyitX9-27" vertex="1">
          <mxGeometry x="10" y="25" width="60" height="30" as="geometry" />
        </mxCell>
        <mxCell id="rfdQTNQrjoHskQr0L6da-1" value="" style="verticalLabelPosition=bottom;verticalAlign=top;html=1;shape=mxgraph.flowchart.summing_function;" vertex="1" parent="1">
          <mxGeometry x="384.33" y="340" width="60" height="60" as="geometry" />
        </mxCell>
        <mxCell id="rfdQTNQrjoHskQr0L6da-2" style="edgeStyle=orthogonalEdgeStyle;rounded=0;orthogonalLoop=1;jettySize=auto;html=1;exitX=0.5;exitY=1;exitDx=0;exitDy=0;exitPerimeter=0;entryX=0.5;entryY=0;entryDx=0;entryDy=0;entryPerimeter=0;" edge="1" parent="1" source="ejSqPQcGGgyNiifL3SCK-1" target="rfdQTNQrjoHskQr0L6da-1">
          <mxGeometry relative="1" as="geometry" />
        </mxCell>
      </root>
    </mxGraphModel>
  </diagram>
  <diagram id="p-veSw1lMaHsD_q7M73T" name="Profile Settings">
    <mxGraphModel dx="1188" dy="708" grid="1" gridSize="10" guides="1" tooltips="1" connect="1" arrows="1" fold="1" page="1" pageScale="1" pageWidth="827" pageHeight="1169" math="0" shadow="0">
      <root>
        <mxCell id="0" />
        <mxCell id="1" parent="0" />
        <mxCell id="ehTspNVASGJlNG5ugYl3-1" value="" style="group" parent="1" vertex="1" connectable="0">
          <mxGeometry x="392.67" y="80" width="80" height="80" as="geometry" />
        </mxCell>
        <mxCell id="ehTspNVASGJlNG5ugYl3-2" value="" style="verticalLabelPosition=bottom;verticalAlign=top;html=1;shape=offPageConnector;rounded=0;size=0.25;" parent="ehTspNVASGJlNG5ugYl3-1" vertex="1">
          <mxGeometry width="80" height="80" as="geometry" />
        </mxCell>
        <mxCell id="ehTspNVASGJlNG5ugYl3-3" value="Profile Settings" style="text;html=1;align=center;verticalAlign=middle;whiteSpace=wrap;rounded=0;" parent="ehTspNVASGJlNG5ugYl3-1" vertex="1">
          <mxGeometry x="10" y="25" width="60" height="30" as="geometry" />
        </mxCell>
        <mxCell id="uBVrAGXPaAjr2SxiRd2o-1" style="edgeStyle=orthogonalEdgeStyle;rounded=0;orthogonalLoop=1;jettySize=auto;html=1;exitX=1;exitY=0.5;exitDx=0;exitDy=0;" edge="1" parent="1" source="qNZL5YMjKGbVpoqx3Yce-1" target="BXhVx3VJlHKLD3A5xzrT-1">
          <mxGeometry relative="1" as="geometry" />
        </mxCell>
        <mxCell id="uBVrAGXPaAjr2SxiRd2o-2" value="Display UI" style="edgeLabel;html=1;align=center;verticalAlign=middle;resizable=0;points=[];" vertex="1" connectable="0" parent="uBVrAGXPaAjr2SxiRd2o-1">
          <mxGeometry x="-0.0132" y="-2" relative="1" as="geometry">
            <mxPoint y="-2" as="offset" />
          </mxGeometry>
        </mxCell>
        <mxCell id="qNZL5YMjKGbVpoqx3Yce-1" value="result = db_result" style="shape=process;whiteSpace=wrap;html=1;backgroundOutline=1;" parent="1" vertex="1">
          <mxGeometry x="110" y="363" width="126" height="60" as="geometry" />
        </mxCell>
        <mxCell id="ayUJKAINsw-sw52-iY21-2" style="edgeStyle=orthogonalEdgeStyle;rounded=0;orthogonalLoop=1;jettySize=auto;html=1;exitX=0.145;exitY=1;exitDx=0;exitDy=-4.35;exitPerimeter=0;entryX=0.25;entryY=0;entryDx=0;entryDy=0;" edge="1" parent="1" source="qNZL5YMjKGbVpoqx3Yce-3" target="ayUJKAINsw-sw52-iY21-6">
          <mxGeometry relative="1" as="geometry">
            <mxPoint x="141" y="792" as="targetPoint" />
          </mxGeometry>
        </mxCell>
        <mxCell id="ayUJKAINsw-sw52-iY21-4" value="Result" style="edgeLabel;html=1;align=center;verticalAlign=middle;resizable=0;points=[];" vertex="1" connectable="0" parent="ayUJKAINsw-sw52-iY21-2">
          <mxGeometry x="-0.1363" relative="1" as="geometry">
            <mxPoint y="-61" as="offset" />
          </mxGeometry>
        </mxCell>
        <mxCell id="qNZL5YMjKGbVpoqx3Yce-3" value="Accounts" style="shape=cylinder3;whiteSpace=wrap;html=1;boundedLbl=1;backgroundOutline=1;size=15;" parent="1" vertex="1">
          <mxGeometry x="129" y="505" width="87" height="80" as="geometry" />
        </mxCell>
        <mxCell id="qNZL5YMjKGbVpoqx3Yce-4" style="edgeStyle=orthogonalEdgeStyle;rounded=0;orthogonalLoop=1;jettySize=auto;html=1;exitX=0.25;exitY=1;exitDx=0;exitDy=0;entryX=0.145;entryY=0;entryDx=0;entryDy=4.35;entryPerimeter=0;" parent="1" source="qNZL5YMjKGbVpoqx3Yce-1" target="qNZL5YMjKGbVpoqx3Yce-3" edge="1">
          <mxGeometry relative="1" as="geometry" />
        </mxCell>
        <mxCell id="qNZL5YMjKGbVpoqx3Yce-6" value="Get User&lt;div&gt;Details&lt;/div&gt;" style="edgeLabel;html=1;align=center;verticalAlign=middle;resizable=0;points=[];" parent="qNZL5YMjKGbVpoqx3Yce-4" vertex="1" connectable="0">
          <mxGeometry x="-0.2027" y="-1" relative="1" as="geometry">
            <mxPoint y="-7" as="offset" />
          </mxGeometry>
        </mxCell>
        <mxCell id="qNZL5YMjKGbVpoqx3Yce-5" style="edgeStyle=orthogonalEdgeStyle;rounded=0;orthogonalLoop=1;jettySize=auto;html=1;exitX=0.735;exitY=0.988;exitDx=0;exitDy=0;entryX=0.843;entryY=0.042;entryDx=0;entryDy=0;entryPerimeter=0;exitPerimeter=0;startArrow=classic;startFill=0;endArrow=none;" parent="1" source="qNZL5YMjKGbVpoqx3Yce-1" target="qNZL5YMjKGbVpoqx3Yce-3" edge="1">
          <mxGeometry relative="1" as="geometry">
            <mxPoint x="186" y="463" as="targetPoint" />
          </mxGeometry>
        </mxCell>
        <mxCell id="qNZL5YMjKGbVpoqx3Yce-7" value="Result" style="edgeLabel;html=1;align=center;verticalAlign=middle;resizable=0;points=[];" parent="qNZL5YMjKGbVpoqx3Yce-5" vertex="1" connectable="0">
          <mxGeometry x="0.3791" y="1" relative="1" as="geometry">
            <mxPoint as="offset" />
          </mxGeometry>
        </mxCell>
        <mxCell id="OXKfJa3VNtxY9TMkgKxN-1" style="edgeStyle=orthogonalEdgeStyle;rounded=0;orthogonalLoop=1;jettySize=auto;html=1;exitX=0;exitY=0.5;exitDx=0;exitDy=0;" parent="1" source="685h8_5G1O2clKME7t7T-1" target="qNZL5YMjKGbVpoqx3Yce-1" edge="1">
          <mxGeometry relative="1" as="geometry" />
        </mxCell>
        <mxCell id="685h8_5G1O2clKME7t7T-1" value="varchar new_fname&lt;div&gt;varchar new_lname&lt;/div&gt;&lt;div&gt;varchar new_email&lt;/div&gt;&lt;div&gt;varchar new_username&lt;/div&gt;&lt;div&gt;varchar new_password&lt;/div&gt;&lt;div&gt;blob new_picture&lt;/div&gt;&lt;div&gt;&lt;span style=&quot;background-color: transparent; color: light-dark(rgb(0, 0, 0), rgb(255, 255, 255));&quot;&gt;object result&lt;/span&gt;&lt;/div&gt;&lt;div&gt;bool update_result&lt;/div&gt;" style="shape=hexagon;perimeter=hexagonPerimeter2;whiteSpace=wrap;html=1;fixedSize=1;" parent="1" vertex="1">
          <mxGeometry x="317.17" y="190" width="231" height="140" as="geometry" />
        </mxCell>
        <mxCell id="685h8_5G1O2clKME7t7T-2" style="edgeStyle=orthogonalEdgeStyle;rounded=0;orthogonalLoop=1;jettySize=auto;html=1;exitX=0.5;exitY=1;exitDx=0;exitDy=0;entryX=0.5;entryY=0;entryDx=0;entryDy=0;" parent="1" source="ehTspNVASGJlNG5ugYl3-2" target="685h8_5G1O2clKME7t7T-1" edge="1">
          <mxGeometry relative="1" as="geometry" />
        </mxCell>
        <mxCell id="xCSpaBH48HHB6EIb0uuK-1" style="edgeStyle=orthogonalEdgeStyle;rounded=0;orthogonalLoop=1;jettySize=auto;html=1;exitX=1;exitY=0.5;exitDx=0;exitDy=0;exitPerimeter=0;entryX=0;entryY=0.5;entryDx=0;entryDy=0;" edge="1" parent="1" source="zeyc9BFfB7Yk0EjbDvlw-1" target="xCSpaBH48HHB6EIb0uuK-7">
          <mxGeometry relative="1" as="geometry">
            <mxPoint x="620" y="400" as="targetPoint" />
          </mxGeometry>
        </mxCell>
        <mxCell id="xCSpaBH48HHB6EIb0uuK-2" value="Go Back" style="edgeLabel;html=1;align=center;verticalAlign=middle;resizable=0;points=[];" vertex="1" connectable="0" parent="xCSpaBH48HHB6EIb0uuK-1">
          <mxGeometry x="0.1627" y="1" relative="1" as="geometry">
            <mxPoint x="-16" y="1" as="offset" />
          </mxGeometry>
        </mxCell>
        <mxCell id="xCSpaBH48HHB6EIb0uuK-3" style="edgeStyle=orthogonalEdgeStyle;rounded=0;orthogonalLoop=1;jettySize=auto;html=1;exitX=0.5;exitY=1;exitDx=0;exitDy=0;exitPerimeter=0;entryX=0.5;entryY=0;entryDx=0;entryDy=0;" edge="1" parent="1" source="zeyc9BFfB7Yk0EjbDvlw-1" target="zeyc9BFfB7Yk0EjbDvlw-3">
          <mxGeometry relative="1" as="geometry">
            <mxPoint x="433" y="640" as="targetPoint" />
          </mxGeometry>
        </mxCell>
        <mxCell id="xCSpaBH48HHB6EIb0uuK-9" value="Edit" style="edgeLabel;html=1;align=center;verticalAlign=middle;resizable=0;points=[];" vertex="1" connectable="0" parent="xCSpaBH48HHB6EIb0uuK-3">
          <mxGeometry x="-0.1859" relative="1" as="geometry">
            <mxPoint as="offset" />
          </mxGeometry>
        </mxCell>
        <mxCell id="BXhVx3VJlHKLD3A5xzrT-1" value="User Details" style="strokeWidth=2;html=1;shape=mxgraph.flowchart.display;whiteSpace=wrap;" vertex="1" parent="1">
          <mxGeometry x="374.34" y="358" width="116.66" height="70" as="geometry" />
        </mxCell>
        <mxCell id="xCSpaBH48HHB6EIb0uuK-6" value="" style="group" vertex="1" connectable="0" parent="1">
          <mxGeometry x="580" y="460" width="80" height="80" as="geometry" />
        </mxCell>
        <mxCell id="xCSpaBH48HHB6EIb0uuK-7" value="" style="verticalLabelPosition=bottom;verticalAlign=top;html=1;shape=offPageConnector;rounded=0;size=0.25;" vertex="1" parent="xCSpaBH48HHB6EIb0uuK-6">
          <mxGeometry width="80" height="80" as="geometry" />
        </mxCell>
        <mxCell id="xCSpaBH48HHB6EIb0uuK-8" value="Landing Page" style="text;html=1;align=center;verticalAlign=middle;whiteSpace=wrap;rounded=0;" vertex="1" parent="xCSpaBH48HHB6EIb0uuK-6">
          <mxGeometry x="10" y="25" width="60" height="30" as="geometry" />
        </mxCell>
        <mxCell id="zeyc9BFfB7Yk0EjbDvlw-1" value="" style="verticalLabelPosition=bottom;verticalAlign=top;html=1;shape=mxgraph.flowchart.summing_function;" vertex="1" parent="1">
          <mxGeometry x="402.67" y="470" width="60" height="60" as="geometry" />
        </mxCell>
        <mxCell id="zeyc9BFfB7Yk0EjbDvlw-2" style="edgeStyle=orthogonalEdgeStyle;rounded=0;orthogonalLoop=1;jettySize=auto;html=1;exitX=0.5;exitY=1;exitDx=0;exitDy=0;exitPerimeter=0;entryX=0.5;entryY=0;entryDx=0;entryDy=0;entryPerimeter=0;" edge="1" parent="1" source="BXhVx3VJlHKLD3A5xzrT-1" target="zeyc9BFfB7Yk0EjbDvlw-1">
          <mxGeometry relative="1" as="geometry" />
        </mxCell>
        <mxCell id="zeyc9BFfB7Yk0EjbDvlw-7" style="edgeStyle=orthogonalEdgeStyle;rounded=0;orthogonalLoop=1;jettySize=auto;html=1;exitX=0.5;exitY=1;exitDx=0;exitDy=0;entryX=0.5;entryY=0;entryDx=0;entryDy=0;" edge="1" parent="1" source="zeyc9BFfB7Yk0EjbDvlw-3" target="zeyc9BFfB7Yk0EjbDvlw-6">
          <mxGeometry relative="1" as="geometry" />
        </mxCell>
        <mxCell id="zeyc9BFfB7Yk0EjbDvlw-3" value="INPUT&lt;div&gt;new_fname,&amp;nbsp;&lt;span style=&quot;background-color: transparent; color: light-dark(rgb(0, 0, 0), rgb(255, 255, 255));&quot;&gt;new_lname&lt;/span&gt;&lt;span style=&quot;background-color: transparent; color: light-dark(rgb(0, 0, 0), rgb(255, 255, 255));&quot;&gt;,&lt;/span&gt;&lt;/div&gt;&lt;div&gt;&lt;span style=&quot;background-color: transparent; color: light-dark(rgb(0, 0, 0), rgb(255, 255, 255));&quot;&gt;new_email,&amp;nbsp;&lt;/span&gt;&lt;span style=&quot;background-color: transparent; color: light-dark(rgb(0, 0, 0), rgb(255, 255, 255));&quot;&gt;new_username,&amp;nbsp;&lt;/span&gt;&lt;/div&gt;&lt;div&gt;&lt;span style=&quot;background-color: transparent; color: light-dark(rgb(0, 0, 0), rgb(255, 255, 255));&quot;&gt;new_password&lt;/span&gt;&lt;/div&gt;" style="shape=parallelogram;perimeter=parallelogramPerimeter;whiteSpace=wrap;html=1;fixedSize=1;" vertex="1" parent="1">
          <mxGeometry x="327.25" y="600" width="210.84" height="80" as="geometry" />
        </mxCell>
        <mxCell id="zeyc9BFfB7Yk0EjbDvlw-6" value="UPDATE&lt;div&gt;user.fname = new_fname,&amp;nbsp;&lt;/div&gt;&lt;div&gt;user.lname = new_lname,&lt;/div&gt;&lt;div&gt;user.email = new_email,&lt;/div&gt;&lt;div&gt;user.username = new_username,&lt;/div&gt;&lt;div&gt;user.password = new_password,&lt;/div&gt;" style="rounded=0;whiteSpace=wrap;html=1;" vertex="1" parent="1">
          <mxGeometry x="326.29" y="740" width="212.75" height="110" as="geometry" />
        </mxCell>
        <mxCell id="zeyc9BFfB7Yk0EjbDvlw-8" style="edgeStyle=orthogonalEdgeStyle;rounded=0;orthogonalLoop=1;jettySize=auto;html=1;entryX=0.855;entryY=1;entryDx=0;entryDy=-4.35;entryPerimeter=0;exitX=0;exitY=0.25;exitDx=0;exitDy=0;" edge="1" parent="1" source="zeyc9BFfB7Yk0EjbDvlw-6" target="qNZL5YMjKGbVpoqx3Yce-3">
          <mxGeometry relative="1" as="geometry" />
        </mxCell>
        <mxCell id="zeyc9BFfB7Yk0EjbDvlw-12" value="Update User Details" style="edgeLabel;html=1;align=center;verticalAlign=middle;resizable=0;points=[];" vertex="1" connectable="0" parent="zeyc9BFfB7Yk0EjbDvlw-8">
          <mxGeometry x="-0.7111" relative="1" as="geometry">
            <mxPoint x="-22" y="-7" as="offset" />
          </mxGeometry>
        </mxCell>
        <mxCell id="ayUJKAINsw-sw52-iY21-3" style="edgeStyle=orthogonalEdgeStyle;rounded=0;orthogonalLoop=1;jettySize=auto;html=1;exitX=1.004;exitY=0.552;exitDx=0;exitDy=0;entryX=0;entryY=0.75;entryDx=0;entryDy=0;exitPerimeter=0;" edge="1" parent="1" source="ayUJKAINsw-sw52-iY21-6" target="zeyc9BFfB7Yk0EjbDvlw-6">
          <mxGeometry relative="1" as="geometry">
            <mxPoint x="216" y="822" as="sourcePoint" />
          </mxGeometry>
        </mxCell>
        <mxCell id="ayUJKAINsw-sw52-iY21-6" value="update_result = db_result" style="shape=process;whiteSpace=wrap;html=1;backgroundOutline=1;" vertex="1" parent="1">
          <mxGeometry x="106.5" y="790" width="139" height="60" as="geometry" />
        </mxCell>
        <mxCell id="00cB4jo_CLCunmRWbG9Y-2" style="edgeStyle=orthogonalEdgeStyle;rounded=0;orthogonalLoop=1;jettySize=auto;html=1;exitX=0.5;exitY=0;exitDx=0;exitDy=0;exitPerimeter=0;entryX=0.5;entryY=1;entryDx=0;entryDy=0;" edge="1" parent="1" source="ayUJKAINsw-sw52-iY21-7" target="00cB4jo_CLCunmRWbG9Y-1">
          <mxGeometry relative="1" as="geometry" />
        </mxCell>
        <mxCell id="00cB4jo_CLCunmRWbG9Y-3" value="False" style="edgeLabel;html=1;align=center;verticalAlign=middle;resizable=0;points=[];" vertex="1" connectable="0" parent="00cB4jo_CLCunmRWbG9Y-2">
          <mxGeometry x="-0.1655" y="-1" relative="1" as="geometry">
            <mxPoint as="offset" />
          </mxGeometry>
        </mxCell>
        <mxCell id="00cB4jo_CLCunmRWbG9Y-8" style="edgeStyle=orthogonalEdgeStyle;rounded=0;orthogonalLoop=1;jettySize=auto;html=1;exitX=1;exitY=0.5;exitDx=0;exitDy=0;exitPerimeter=0;entryX=0.5;entryY=1;entryDx=0;entryDy=0;" edge="1" parent="1" source="ayUJKAINsw-sw52-iY21-7" target="00cB4jo_CLCunmRWbG9Y-7">
          <mxGeometry relative="1" as="geometry" />
        </mxCell>
        <mxCell id="00cB4jo_CLCunmRWbG9Y-9" value="True" style="edgeLabel;html=1;align=center;verticalAlign=middle;resizable=0;points=[];" vertex="1" connectable="0" parent="00cB4jo_CLCunmRWbG9Y-8">
          <mxGeometry x="0.5631" y="-1" relative="1" as="geometry">
            <mxPoint x="-1" as="offset" />
          </mxGeometry>
        </mxCell>
        <mxCell id="ayUJKAINsw-sw52-iY21-7" value="if&lt;div&gt;update_result&lt;/div&gt;" style="strokeWidth=2;html=1;shape=mxgraph.flowchart.decision;whiteSpace=wrap;" vertex="1" parent="1">
          <mxGeometry x="640" y="735" width="120" height="120" as="geometry" />
        </mxCell>
        <mxCell id="ayUJKAINsw-sw52-iY21-8" style="edgeStyle=orthogonalEdgeStyle;rounded=0;orthogonalLoop=1;jettySize=auto;html=1;exitX=1;exitY=0.5;exitDx=0;exitDy=0;entryX=0;entryY=0.5;entryDx=0;entryDy=0;entryPerimeter=0;" edge="1" parent="1" source="zeyc9BFfB7Yk0EjbDvlw-6" target="ayUJKAINsw-sw52-iY21-7">
          <mxGeometry relative="1" as="geometry" />
        </mxCell>
        <mxCell id="00cB4jo_CLCunmRWbG9Y-1" value="DISPLAY&lt;div&gt;&quot;Update Failed&quot;&lt;/div&gt;" style="shape=parallelogram;perimeter=parallelogramPerimeter;whiteSpace=wrap;html=1;fixedSize=1;" vertex="1" parent="1">
          <mxGeometry x="625" y="585" width="150" height="60" as="geometry" />
        </mxCell>
        <mxCell id="00cB4jo_CLCunmRWbG9Y-4" style="edgeStyle=orthogonalEdgeStyle;rounded=0;orthogonalLoop=1;jettySize=auto;html=1;exitX=0.5;exitY=0;exitDx=0;exitDy=0;entryX=1;entryY=0.5;entryDx=0;entryDy=0;entryPerimeter=0;" edge="1" parent="1" source="00cB4jo_CLCunmRWbG9Y-1" target="BXhVx3VJlHKLD3A5xzrT-1">
          <mxGeometry relative="1" as="geometry" />
        </mxCell>
        <mxCell id="00cB4jo_CLCunmRWbG9Y-7" value="DISPLAY&lt;div&gt;&quot;Update Failed&quot;&lt;/div&gt;" style="shape=parallelogram;perimeter=parallelogramPerimeter;whiteSpace=wrap;html=1;fixedSize=1;" vertex="1" parent="1">
          <mxGeometry x="775" y="585" width="150" height="60" as="geometry" />
        </mxCell>
        <mxCell id="00cB4jo_CLCunmRWbG9Y-10" style="edgeStyle=orthogonalEdgeStyle;rounded=0;orthogonalLoop=1;jettySize=auto;html=1;exitX=0.5;exitY=0;exitDx=0;exitDy=0;" edge="1" parent="1" source="00cB4jo_CLCunmRWbG9Y-7">
          <mxGeometry relative="1" as="geometry">
            <mxPoint x="854" y="585" as="sourcePoint" />
            <mxPoint x="694" y="393" as="targetPoint" />
            <Array as="points">
              <mxPoint x="850" y="393" />
            </Array>
          </mxGeometry>
        </mxCell>
        <mxCell id="00cB4jo_CLCunmRWbG9Y-11" value="&lt;span style=&quot;color: rgb(255, 255, 255); font-family: Helvetica; font-size: 11px; font-style: normal; font-variant-ligatures: normal; font-variant-caps: normal; font-weight: 400; letter-spacing: normal; orphans: 2; text-align: center; text-indent: 0px; text-transform: none; widows: 2; word-spacing: 0px; -webkit-text-stroke-width: 0px; white-space: nowrap; background-color: rgb(18, 18, 18); text-decoration-thickness: initial; text-decoration-style: initial; text-decoration-color: initial; display: inline !important; float: none;&quot;&gt;Display UI&lt;/span&gt;" style="text;whiteSpace=wrap;html=1;" vertex="1" parent="1">
          <mxGeometry x="672.5" y="363" width="55" height="20" as="geometry" />
        </mxCell>
      </root>
    </mxGraphModel>
  </diagram>
  <diagram id="geSTerfzN7tlfeJ0_y6A" name="Seminar Page">
    <mxGraphModel dx="983" dy="586" grid="1" gridSize="10" guides="1" tooltips="1" connect="1" arrows="1" fold="1" page="1" pageScale="1" pageWidth="827" pageHeight="1169" math="0" shadow="0">
      <root>
        <mxCell id="0" />
        <mxCell id="1" parent="0" />
        <mxCell id="howq7FKAQv1rdDqV-Z7A-1" value="" style="group" vertex="1" connectable="0" parent="1">
          <mxGeometry x="374" y="150" width="80" height="80" as="geometry" />
        </mxCell>
        <mxCell id="howq7FKAQv1rdDqV-Z7A-2" value="" style="verticalLabelPosition=bottom;verticalAlign=top;html=1;shape=offPageConnector;rounded=0;size=0.25;" vertex="1" parent="howq7FKAQv1rdDqV-Z7A-1">
          <mxGeometry width="80" height="80" as="geometry" />
        </mxCell>
        <mxCell id="howq7FKAQv1rdDqV-Z7A-3" value="Seminar&lt;div&gt;Page&lt;/div&gt;" style="text;html=1;align=center;verticalAlign=middle;whiteSpace=wrap;rounded=0;" vertex="1" parent="howq7FKAQv1rdDqV-Z7A-1">
          <mxGeometry x="10" y="25" width="60" height="30" as="geometry" />
        </mxCell>
        <mxCell id="WkHgU6m8kZzKetF1Gma--1" value="Seminar List" style="strokeWidth=2;html=1;shape=mxgraph.flowchart.display;whiteSpace=wrap;" vertex="1" parent="1">
          <mxGeometry x="580" y="362" width="120" height="72" as="geometry" />
        </mxCell>
        <mxCell id="nkpFIgH-cnBm3qXDfgMT-1" value="result = db_result" style="shape=process;whiteSpace=wrap;html=1;backgroundOutline=1;" vertex="1" parent="1">
          <mxGeometry x="351" y="368" width="126" height="60" as="geometry" />
        </mxCell>
        <mxCell id="nkpFIgH-cnBm3qXDfgMT-2" value="Seminars" style="shape=cylinder3;whiteSpace=wrap;html=1;boundedLbl=1;backgroundOutline=1;size=15;" vertex="1" parent="1">
          <mxGeometry x="370" y="503" width="87" height="80" as="geometry" />
        </mxCell>
        <mxCell id="nkpFIgH-cnBm3qXDfgMT-3" style="edgeStyle=orthogonalEdgeStyle;rounded=0;orthogonalLoop=1;jettySize=auto;html=1;exitX=0.25;exitY=1;exitDx=0;exitDy=0;entryX=0.145;entryY=0;entryDx=0;entryDy=4.35;entryPerimeter=0;" edge="1" parent="1" source="nkpFIgH-cnBm3qXDfgMT-1" target="nkpFIgH-cnBm3qXDfgMT-2">
          <mxGeometry relative="1" as="geometry" />
        </mxCell>
        <mxCell id="nkpFIgH-cnBm3qXDfgMT-4" value="Get all&amp;nbsp;&lt;div&gt;Seminars&lt;/div&gt;" style="edgeLabel;html=1;align=center;verticalAlign=middle;resizable=0;points=[];" vertex="1" connectable="0" parent="nkpFIgH-cnBm3qXDfgMT-3">
          <mxGeometry x="-0.2027" y="-1" relative="1" as="geometry">
            <mxPoint y="-7" as="offset" />
          </mxGeometry>
        </mxCell>
        <mxCell id="nkpFIgH-cnBm3qXDfgMT-5" style="edgeStyle=orthogonalEdgeStyle;rounded=0;orthogonalLoop=1;jettySize=auto;html=1;exitX=0.735;exitY=0.988;exitDx=0;exitDy=0;entryX=0.843;entryY=0.042;entryDx=0;entryDy=0;entryPerimeter=0;exitPerimeter=0;startArrow=classic;startFill=0;endArrow=none;" edge="1" parent="1" source="nkpFIgH-cnBm3qXDfgMT-1" target="nkpFIgH-cnBm3qXDfgMT-2">
          <mxGeometry relative="1" as="geometry">
            <mxPoint x="427" y="468" as="targetPoint" />
          </mxGeometry>
        </mxCell>
        <mxCell id="nkpFIgH-cnBm3qXDfgMT-6" value="Result" style="edgeLabel;html=1;align=center;verticalAlign=middle;resizable=0;points=[];" vertex="1" connectable="0" parent="nkpFIgH-cnBm3qXDfgMT-5">
          <mxGeometry x="0.3791" y="1" relative="1" as="geometry">
            <mxPoint as="offset" />
          </mxGeometry>
        </mxCell>
        <mxCell id="nkpFIgH-cnBm3qXDfgMT-10" style="edgeStyle=orthogonalEdgeStyle;rounded=0;orthogonalLoop=1;jettySize=auto;html=1;entryX=0.5;entryY=0;entryDx=0;entryDy=0;" edge="1" parent="1" source="nkpFIgH-cnBm3qXDfgMT-8" target="nkpFIgH-cnBm3qXDfgMT-1">
          <mxGeometry relative="1" as="geometry" />
        </mxCell>
        <mxCell id="nkpFIgH-cnBm3qXDfgMT-8" value="object result&lt;div&gt;object request_result&lt;/div&gt;" style="shape=hexagon;perimeter=hexagonPerimeter2;whiteSpace=wrap;html=1;fixedSize=1;" vertex="1" parent="1">
          <mxGeometry x="341" y="262" width="146" height="70" as="geometry" />
        </mxCell>
        <mxCell id="nkpFIgH-cnBm3qXDfgMT-9" style="edgeStyle=orthogonalEdgeStyle;rounded=0;orthogonalLoop=1;jettySize=auto;html=1;exitX=0.5;exitY=1;exitDx=0;exitDy=0;entryX=0.5;entryY=0;entryDx=0;entryDy=0;" edge="1" parent="1" source="howq7FKAQv1rdDqV-Z7A-2" target="nkpFIgH-cnBm3qXDfgMT-8">
          <mxGeometry relative="1" as="geometry" />
        </mxCell>
        <mxCell id="nkpFIgH-cnBm3qXDfgMT-11" style="edgeStyle=orthogonalEdgeStyle;rounded=0;orthogonalLoop=1;jettySize=auto;html=1;exitX=1;exitY=0.5;exitDx=0;exitDy=0;entryX=0;entryY=0.5;entryDx=0;entryDy=0;entryPerimeter=0;" edge="1" parent="1" source="nkpFIgH-cnBm3qXDfgMT-1" target="WkHgU6m8kZzKetF1Gma--1">
          <mxGeometry relative="1" as="geometry" />
        </mxCell>
        <mxCell id="nkpFIgH-cnBm3qXDfgMT-12" value="Display UI" style="edgeLabel;html=1;align=center;verticalAlign=middle;resizable=0;points=[];" vertex="1" connectable="0" parent="nkpFIgH-cnBm3qXDfgMT-11">
          <mxGeometry x="-0.0358" y="-3" relative="1" as="geometry">
            <mxPoint y="-3" as="offset" />
          </mxGeometry>
        </mxCell>
      </root>
    </mxGraphModel>
  </diagram>
</mxfile>
